<?xml version="1.0" encoding="utf-8"?>
<!-- Generator: Adobe Illustrator 25.2.1, SVG Export Plug-In . SVG Version: 6.00 Build 0)  -->
<svg version="1.1" id="圖層_1" xmlns="http://www.w3.org/2000/svg" xmlns:xlink="http://www.w3.org/1999/xlink" x="0px" y="0px"
	 viewBox="0 0 480 65" style="enable-background:new 0 0 480 65;" xml:space="preserve">
<style type="text/css">
	.st0{fill:#A9C73B;}
	.st1{fill:#EB9F35;}
	.st2{fill:#E16A31;}
	.st3{fill:#D63E7C;}
	.st4{fill:#070001;}
	.st5{fill:#8CBF45;}
	.st6{fill:#BCD13D;}
	.st7{fill:#57969D;}
	.st8{fill:#302A29;}
</style>
<g>
	<g>
		<g>
			<path class="st0" d="M10.6,20.5H5.7c-1.1,0-2.1-0.9-2.1-2.1v-4.9c0-1.1,0.9-2.1,2.1-2.1h4.9c1.1,0,2.1,0.9,2.1,2.1v4.9
				C12.7,19.6,11.8,20.5,10.6,20.5z"/>
			<path class="st1" d="M11,33.2H5.3c-0.9,0-1.7-0.8-1.7-1.7v-5.6c0-0.9,0.8-1.7,1.7-1.7H11c0.9,0,1.7,0.8,1.7,1.7v5.6
				C12.7,32.5,11.9,33.2,11,33.2z"/>
			<path class="st2" d="M11,43.9H5.3c-0.9,0-1.7-0.8-1.7-1.7v-5.6c0-0.9,0.8-1.7,1.7-1.7H11c0.9,0,1.7,0.8,1.7,1.7v5.6
				C12.7,43.1,11.9,43.9,11,43.9z"/>
			<path class="st3" d="M11,54.5H5.3c-0.9,0-1.7-0.8-1.7-1.7v-5.6c0-0.9,0.8-1.7,1.7-1.7H11c0.9,0,1.7,0.8,1.7,1.7v5.6
				C12.7,53.8,11.9,54.5,11,54.5z"/>
			<circle class="st4" cx="27.9" cy="30.5" r="3.2"/>
			<path class="st4" d="M53.7,27.3v21.6c0,2.1,0.1,4.4,0.2,5.6h-5.2l-0.2-2.8h-0.1c-1.2,2.1-3.5,3.2-5.9,3.2c-4.4,0-8-3.8-8-9.6
				c0-6.3,3.9-10,8.4-10c2.3,0,4.1,0.8,4.9,2.1h0.1V27.3H53.7z M47.9,43.7c0-0.3,0-0.7-0.1-1.1c-0.3-1.6-1.6-2.9-3.4-2.9
				c-2.7,0-4,2.4-4,5.3c0,3.2,1.6,5.2,4,5.2c1.7,0,3-1.2,3.4-2.8c0.1-0.4,0.1-0.9,0.1-1.3V43.7z"/>
			<path class="st4" d="M62.9,47c0.2,2.4,2.6,3.6,5.3,3.6c2,0,3.6-0.3,5.2-0.8l0.8,4c-1.9,0.8-4.3,1.2-6.8,1.2c-6.4,0-10-3.7-10-9.6
				c0-4.8,3-10.1,9.5-10.1c6.1,0,8.4,4.7,8.4,9.4c0,1-0.1,1.9-0.2,2.3H62.9z M69.7,43c0-1.4-0.6-3.8-3.3-3.8c-2.5,0-3.5,2.3-3.6,3.8
				H69.7z"/>
			<path class="st4" d="M89.3,54.5L89,52.7h-0.1c-1.2,1.5-3.1,2.3-5.4,2.3c-3.8,0-6.1-2.7-6.1-5.7c0-4.9,4.4-7.2,11-7.2v-0.2
				c0-1-0.5-2.4-3.4-2.4c-1.9,0-3.9,0.7-5.2,1.4L78.8,37c1.3-0.7,3.9-1.7,7.3-1.7c6.3,0,8.2,3.7,8.2,8.1V50c0,1.8,0.1,3.5,0.3,4.5
				H89.3z M88.6,45.6c-3.1,0-5.4,0.7-5.4,3c0,1.5,1,2.2,2.3,2.2c1.4,0,2.6-1,3-2.2c0.1-0.3,0.1-0.7,0.1-1V45.6z"/>
			<path class="st4" d="M130.1,47c0.2,2.4,2.6,3.6,5.3,3.6c2,0,3.6-0.3,5.2-0.8l0.8,4c-1.9,0.8-4.3,1.2-6.8,1.2
				c-6.4,0-10-3.7-10-9.6c0-4.8,3-10.1,9.5-10.1c6.1,0,8.4,4.7,8.4,9.4c0,1-0.1,1.9-0.2,2.3H130.1z M136.9,43c0-1.4-0.6-3.8-3.3-3.8
				c-2.5,0-3.5,2.3-3.6,3.8H136.9z"/>
			<path class="st4" d="M145.8,42c0-2.5-0.1-4.6-0.2-6.3h5.1l0.3,2.6h0.1c1.4-2,3.5-3.1,6.3-3.1c4.1,0,7.8,3.6,7.8,9.6
				c0,6.8-4.4,10.1-8.5,10.1c-2.2,0-4-0.9-4.9-2.1h-0.1v9.3h-5.8V42z M151.7,46.5c0,0.4,0,0.8,0.1,1.2c0.4,1.6,1.7,2.8,3.4,2.8
				c2.5,0,4-2.1,4-5.3c0-3-1.3-5.3-3.9-5.3c-1.7,0-3.1,1.2-3.5,3c-0.1,0.3-0.1,0.7-0.1,1V46.5z"/>
			<path class="st4" d="M187.4,44.9c0,6.9-4.9,10-9.9,10c-5.5,0-9.7-3.6-9.7-9.7c0-6.1,4-10,10-10C183.6,35.3,187.4,39.3,187.4,44.9
				z M173.9,45.1c0,3.2,1.4,5.6,3.8,5.6c2.3,0,3.7-2.3,3.7-5.7c0-2.8-1.1-5.6-3.7-5.6C174.9,39.5,173.9,42.3,173.9,45.1z"/>
			<path class="st4" d="M197.6,30.4v5.4h4.2V40h-4.2v6.8c0,2.3,0.6,3.3,2.3,3.3c0.8,0,1.3-0.1,1.7-0.2l0,4.4
				c-0.8,0.3-2.1,0.5-3.8,0.5c-1.9,0-3.5-0.7-4.4-1.6c-1.1-1.1-1.6-2.9-1.6-5.6V40h-2.5v-4.3h2.5v-4L197.6,30.4z"/>
			<path class="st4" d="M205.1,49.4c1.1,0.7,3.3,1.4,5,1.4c1.8,0,2.5-0.6,2.5-1.6c0-1-0.6-1.4-2.8-2.2c-3.9-1.3-5.4-3.4-5.4-5.6
				c0-3.5,3-6.2,7.6-6.2c2.2,0,4.1,0.5,5.3,1.1l-1,4c-0.8-0.4-2.5-1.1-4.1-1.1c-1.4,0-2.2,0.6-2.2,1.5c0,0.9,0.7,1.4,3,2.2
				c3.6,1.2,5.1,3,5.1,5.8c0,3.5-2.7,6.1-8.1,6.1c-2.4,0-4.7-0.6-6.1-1.3L205.1,49.4z"/>
			<path class="st4" d="M108.3,28h-3c-0.2,0-0.3,0-0.5,0v0h-5.8v1.6v3.5v16.3v3.5v1.6h5.8v0c0.2,0,0.3,0,0.5,0h3
				c7.3,0,13.3-6,13.3-13.3v0C121.6,34,115.6,28,108.3,28z M115.8,41.6c0,4.7-3.8,8.5-8.5,8.5h-2.5V32.4h2.5c4.7,0,8.5,3.8,8.5,8.5
				V41.6z"/>
			<path class="st4" d="M29.7,35.7h-3.6c-0.6,0-1.1,0.5-1.1,1.1v16.6c0,0.6,0.5,1.1,1.1,1.1h3.6c0.6,0,1.1-0.5,1.1-1.1V36.8
				C30.8,36.2,30.4,35.7,29.7,35.7z"/>
		</g>
	</g>
	<g>
		<g>
			<circle class="st5" cx="310.9" cy="27.2" r="3.9"/>
			<path class="st5" d="M298.8,62.6h-31.4c-2.2,0-3.9-1.7-3.9-3.9c0-2.2,1.7-3.9,3.9-3.9h31.4c2.2,0,3.9,1.7,3.9,3.9
				C302.8,60.8,301,62.6,298.8,62.6z"/>
			<circle class="st5" cx="323.1" cy="58.7" r="3.9"/>
			<path class="st5" d="M298.8,46.9h-31.4c-2.2,0-3.9-1.7-3.9-3.9c0-2.2,1.7-3.9,3.9-3.9h31.4c2.2,0,3.9,1.7,3.9,3.9
				C302.8,45.2,301,46.9,298.8,46.9z"/>
		</g>
		<g>
			<path class="st6" d="M286.7,31.1h-19.3c-2.2,0-3.9-1.7-3.9-3.9s1.7-3.9,3.9-3.9h19.3c2.2,0,3.9,1.7,3.9,3.9
				C290.5,29.4,288.8,31.1,286.7,31.1z"/>
			<circle class="st6" cx="298.7" cy="27.2" r="3.9"/>
			<circle class="st6" cx="323.1" cy="27.2" r="3.9"/>
			<path class="st6" d="M314.8,59.6c0.7-2.8-1.9-5.3-4.8-4.8c-1.5,0.3-2.6,1.5-3,3c-0.7,2.8,1.9,5.3,4.8,4.8
				C313.3,62.2,314.5,61,314.8,59.6z"/>
			<path class="st6" d="M323.1,46.9h-24.4c-2.2,0-3.9-1.7-3.9-3.9c0-2.2,1.7-3.9,3.9-3.9h24.4c2.2,0,3.9,1.7,3.9,3.9
				C327,45.2,325.3,46.9,323.1,46.9z"/>
		</g>
		<circle class="st7" cx="298.7" cy="42.9" r="3.9"/>
		<g>
			<path class="st8" d="M437.3,22.9h3.2v19.3h-3.2V22.9z"/>
			<path class="st8" d="M382.8,43.2h3.2v19.3h-3.2V43.2z"/>
			<path class="st8" d="M390.4,42.2l-5.8-8.4c2.5-0.6,4.3-2.8,4.2-5.6c-0.1-3.1-2.6-5.4-5.7-5.4h-5h-2.5h-0.8v19.3h3.2V34v-2.8v-0.5
				v-4.4v-0.4h0.3h4.5h0.1c1.5,0.1,2.5,1.2,2.5,2.7s-1.1,2.6-2.5,2.7h-0.1h-3.4c0.1,0.2,0.3,0.5,0.5,0.7l7.1,10.3L390.4,42.2
				C390.4,42.3,390.4,42.3,390.4,42.2L390.4,42.2z"/>
			<path class="st8" d="M455.9,22.9v14.8l-10.1-14.8h-0.3h-3.2v19.4h3.2V27.6l10,14.8h0.3h3.1V22.9H455.9z"/>
			<path class="st8" d="M418.1,43.2V58L408,43.2h-0.3h-3.2v19.4h3.2V47.8l10.1,14.8h0.3h3.2V43.2H418.1z"/>
			<path class="st8" d="M374.7,42.3l-7.6-19.4h-0.7h-2.7H363l-7.7,19.4h3.4l6.2-15.9l6.2,15.9H374.7z"/>
			<path class="st8" d="M355.1,22.9h-3.1h-0.3l-6.2,9.2l-6.2-9.2h-0.3h-3.2v19.4h3.2v-0.6V27.6l4.9,7l1.7,2.6l1.7-2.6l4.9-7v14.2
				l0.3,0.6l-0.3-0.6v0.6h3.1V22.9H355.1z"/>
			<path class="st8" d="M390.6,22.9v19.4h3.2V31.2v-8.3H390.6z"/>
			<path class="st8" d="M397.7,31.2h-3.9l9.2,11.1h4.2L397.7,31.2z"/>
			<path class="st8" d="M405.6,22.9h-3.4l-4.4,8.3h3.6L405.6,22.9z"/>
			<path class="st8" d="M435.5,22.9h-4.5h-3.2h-4.7v2.7h4.7v16.7h3.2V25.7h4.5V22.9z"/>
			<path class="st8" d="M421.2,25.8V23h-10.7h-3.2v2.7v5v2.7v6.2v2.7h3.2h10.7v-2.7h-10.7v-6.2h9.2v-2.7h-9.2v-5H421.2z"/>
			<path class="st8" d="M367.1,46v-2.7h-10.7h-3.2V46v5v2.7v6.2v2.7h3.2h9.9l0.8-2.7h-10.7v-6.2h9.4V51h-9.3v-5H367.1z"/>
			<path class="st8" d="M344.1,43.2H339h-2.6h-0.5v7.5v0.8v2.7V55v7.6h0.5h2.6h5.1c4.5,0,8.3-3.7,8.3-8.3v-2.7
				C352.4,47,348.6,43.2,344.1,43.2L344.1,43.2z M349.1,55c0,2.6-2.2,4.8-4.8,4.8h-0.2h-3.5H339v-0.3V46.4v-0.3h1.6h3.5h0.2
				c2.6,0,4.8,2.2,4.8,4.8V55z"/>
			<path class="st8" d="M473.9,31.2h-5.1V34h5.1v0.3c0,2.8-2.3,5.1-5.1,5.1s-5.1-2.3-5.1-5.1v-3.6c0-2.8,2.3-5.1,5.1-5.1
				c2,0,3.7,1.1,4.5,2.7h3.3c-1-3.2-4.1-5.6-7.6-5.6h-0.6c-4.4,0-7.9,3.6-7.9,7.9V34c0,4.4,3.6,7.9,7.9,7.9h0.6
				c4.4,0,7.9-3.6,7.9-7.9v-0.3v-2.6L473.9,31.2L473.9,31.2z"/>
			<path class="st8" d="M400.4,51.5h-5.1v2.7h5.1v0.3c0,2.8-2.3,5.1-5.1,5.1c-2.8,0-5.1-2.3-5.1-5.1V51c0-2.8,2.3-5.1,5.1-5.1
				c2,0,3.7,1.1,4.5,2.7h3.3c-1-3.2-4.1-5.6-7.6-5.6H395c-4.4,0-7.9,3.6-7.9,7.9v3.3c0,4.4,3.6,7.9,7.9,7.9h0.6
				c4.4,0,7.9-3.6,7.9-7.9V54v-2.7L400.4,51.5z"/>
			<path class="st8" d="M380.2,52.8c-0.9-0.8-2.1-1.4-3.4-1.4h-0.5h-2.6c-1.5,0-2.6-1.2-2.6-2.6c0-1.5,1.2-2.6,2.6-2.6h2.6h4.7
				l0.8-2.7h-5.6h-2.6c-2,0-3.8,1.1-4.8,2.7c-0.5,0.9-0.8,1.8-0.8,2.7v0.1c0,1.5,0.6,2.8,1.5,3.8c1,1,2.5,1.7,4,1.7h2.6h0.1
				c1.5,0,2.6,1.2,2.6,2.6c0,1.5-1.2,2.6-2.6,2.6h-3h-5.1l-0.7,2.7h5.2h3.9c2,0,3.7-1.1,4.5-2.7c0.3-0.8,0.6-1.5,0.6-2.5v-0.8
				C381.9,55,381.2,53.7,380.2,52.8L380.2,52.8z"/>
			<path class="st8" d="M384.8,22l-5.8-8.4c2.5-0.6,4.3-2.8,4.2-5.6c-0.1-3.1-2.6-5.4-5.7-5.4h-4.8h-2.5h-0.8V22h3.2v-8.3V11v-0.5V6
				V5.5h0.3h4.5h0.1c1.5,0.1,2.5,1.2,2.5,2.7s-1.1,2.6-2.5,2.7h-0.2h-3.5c0.1,0.2,0.3,0.5,0.5,0.7l7.1,10.3H384.8
				C384.8,22.1,384.8,22.1,384.8,22z"/>
			<path class="st8" d="M360.6,2.7H360c-4.4,0-7.9,3.6-7.9,7.9V14c0,4.4,3.6,7.9,7.9,7.9h0.6c4.4,0,7.9-3.6,7.9-7.9v-3.3
				C368.6,6.3,365,2.7,360.6,2.7z M365.4,14.2c0,2.8-2.3,5.1-5.1,5.1s-5.1-2.3-5.1-5.1v-3.6c0-2.8,2.3-5.1,5.1-5.1s5.1,2.3,5.1,5.1
				V14.2z"/>
			<path class="st8" d="M398.5,2.7v14.8L388.4,2.7H388h-3.2v19.4h3.2V7.3l10.1,14.8h0.3h3.2V2.7H398.5z"/>
			<path class="st8" d="M421.3,22.1l-7.7-19.4h-0.7h-2.7h-0.6l-7.7,19.4h3.4l6.2-15.9l6.2,15.9H421.3z"/>
			<path class="st8" d="M348.6,12.3c-0.1,0-0.1-0.1-0.2-0.1c0.1-0.1,0.2-0.1,0.3-0.2c1-0.9,1.7-2.3,1.7-3.7c0-3.1-2.5-5.6-5.6-5.6
				h-1h-1.8H339h-1.1h-2.1v5.6v8.3v5.6h2.1h1.1h5.1h1.5c0.5,0,0.9-0.1,1.5-0.2c2.4-0.6,4.2-2.7,4.2-5.3
				C351.1,14.9,350.2,13.4,348.6,12.3L348.6,12.3z M339.1,5.4h5.7h0.1c1.5,0.1,2.5,1.2,2.5,2.7s-1.1,2.6-2.5,2.7h-0.1h-0.6h-5.1V5.4
				z M345.6,19.3C345.5,19.3,345.5,19.3,345.6,19.3h-4.7h-1.7v-0.6v-4.4v-0.5h1.7h3.1h1h0.5h0.1c1.5,0,2.5,1.2,2.5,2.7
				S346.9,19.3,345.6,19.3L345.6,19.3z"/>
		</g>
	</g>
</g>
</svg>
