<?xml version="1.0" encoding="utf-8"?>
<!-- Generator: Adobe Illustrator 25.2.1, SVG Export Plug-In . SVG Version: 6.00 Build 0)  -->
<svg version="1.1" id="圖層_1" xmlns="http://www.w3.org/2000/svg" xmlns:xlink="http://www.w3.org/1999/xlink" x="0px" y="0px"
	 viewBox="0 0 393.7 58" style="enable-background:new 0 0 393.7 58;" xml:space="preserve">
<style type="text/css">
	.st0{fill:#FFB71B;}
	.st1{stroke:#FFFFFF;stroke-width:0.3299;stroke-miterlimit:10;}
	.st2{fill:#FFFFFF;}
	.st3{fill:#C9CACA;}
</style>
<path class="st0" d="M50.1-125.1H36.6L16.3-75.6h13.6L50.1-125.1z"/>
<path class="st1" d="M53.2-123.5l-6.8,16.6l12.8,31.3h14.4L53.2-123.5z"/>
<path d="M99.6-75.4v-20.4c0-2.3-0.4-4-1.3-5c-0.8-1-2.1-1.6-3.9-1.6c-2.1,0-3.9,0.7-5.2,2.1c-1.3,1.4-2,3.2-2,5.5v19.4H76.4v-34.7
	H87v4.5c1.2-1.7,2.7-3,4.5-3.9c2-1,4.2-1.5,6.6-1.5c4.1,0,7.3,1.2,9.3,3.7c2,2.4,3.1,6.1,3.1,11v20.9H99.6z"/>
<path class="st2" d="M98.1-110.8c4.1,0,7.2,1.2,9.2,3.6c2,2.4,3,6,3,10.9v20.7H99.8v-20.2c0-2.3-0.4-4-1.3-5.1s-2.2-1.6-4-1.6
	c-2.2,0-4,0.7-5.3,2.1s-2,3.3-2,5.6v19.3H76.6V-110h10.3v4.9c1.2-1.9,2.8-3.3,4.7-4.3C93.5-110.3,95.7-110.8,98.1-110.8 M98.1-111.1
	c-2.5,0-4.7,0.5-6.7,1.5c-1.7,0.8-3.1,2-4.3,3.5v-3.9v-0.3h-0.3H76.6h-0.3v0.3v34.4v0.3h0.3h10.6h0.3v-0.3v-19.2
	c0-2.2,0.6-4,1.9-5.4c1.3-1.3,3-2,5.1-2c1.7,0,3,0.5,3.8,1.5s1.2,2.7,1.2,4.9v20.3v0.3h0.3h10.6h0.3v-0.3v-20.8
	c0-4.9-1-8.7-3.1-11.1C105.5-109.9,102.3-111.1,98.1-111.1z"/>
<path d="M130.9-74.8c-3.2,0-6.1-0.4-8.8-1.1c-2.6-0.7-5-1.8-6.9-3.1l-0.1-0.1l2.9-7.6l0.2,0.1c1.8,1.2,3.9,2.2,6.1,2.9
	c2.2,0.7,4.5,1,6.8,1c1.6,0,2.9-0.3,3.7-0.8c0.9-0.5,1.3-1.2,1.3-2.1c0-0.8-0.3-1.4-0.9-1.8c-0.6-0.5-1.8-0.9-3.5-1.2l-5.6-1.3
	c-3.3-0.8-5.8-1.9-7.4-3.5c-1.6-1.6-2.4-3.8-2.4-6.5c0-2.2,0.6-4.1,1.9-5.8c1.2-1.7,3-3,5.3-3.9c2.3-0.9,4.9-1.4,7.8-1.4
	c2.5,0,4.9,0.4,7.3,1.1c2.3,0.8,4.5,1.8,6.4,3.2l0.1,0.1l-2.9,7.3l-0.2-0.1c-3.6-2.5-7.2-3.8-10.7-3.8c-1.6,0-2.9,0.3-3.8,0.8
	s-1.3,1.3-1.3,2.2c0,0.7,0.3,1.2,0.8,1.6c0.5,0.4,1.5,0.8,2.9,1.2l5.8,1.3c3.5,0.8,6.1,2,7.8,3.7c1.6,1.6,2.5,3.9,2.5,6.7
	c0,3.4-1.4,6-4,8C139.3-75.8,135.6-74.8,130.9-74.8L130.9-74.8z"/>
<path class="st2" d="M131.4-110.8c2.5,0,4.9,0.4,7.2,1.1c2.3,0.7,4.4,1.8,6.3,3.2l-2.8,7c-3.6-2.5-7.2-3.8-10.8-3.8
	c-1.6,0-2.9,0.3-3.9,0.8c-0.9,0.6-1.4,1.4-1.4,2.4c0,0.7,0.3,1.3,0.8,1.8c0.6,0.4,1.5,0.8,2.9,1.2l5.8,1.3c3.5,0.8,6.1,2,7.7,3.6
	c1.6,1.6,2.4,3.8,2.4,6.6c0,3.3-1.3,5.9-4,7.8c-2.6,1.9-6.3,2.8-10.9,2.8c-3.2,0-6.1-0.4-8.7-1.1s-4.9-1.8-6.8-3.1l2.8-7.3
	c1.9,1.3,3.9,2.2,6.2,2.9c2.2,0.7,4.5,1.1,6.8,1.1c1.6,0,2.9-0.3,3.8-0.8c0.9-0.5,1.4-1.3,1.4-2.2c0-0.8-0.3-1.5-0.9-2
	c-0.6-0.5-1.8-0.9-3.5-1.3l-5.6-1.3c-3.3-0.7-5.8-1.9-7.3-3.5c-1.6-1.6-2.3-3.7-2.3-6.4c0-2.1,0.6-4,1.9-5.7c1.2-1.6,3-2.9,5.3-3.9
	C125.9-110.3,128.5-110.8,131.4-110.8 M131.4-111.1c-2.9,0-5.6,0.5-7.9,1.4c-2.3,1-4.1,2.3-5.4,4s-1.9,3.7-1.9,5.9
	c0,2.8,0.8,5,2.4,6.6s4.1,2.8,7.5,3.6l5.6,1.3c1.7,0.4,2.8,0.8,3.4,1.2c0.5,0.4,0.8,1,0.8,1.7c0,0.8-0.4,1.4-1.2,1.9
	c-0.9,0.5-2.1,0.8-3.7,0.8c-2.2,0-4.5-0.3-6.7-1s-4.2-1.7-6.1-2.9L118-87l-0.1,0.4l-2.8,7.3l-0.1,0.2l0.2,0.1
	c1.9,1.4,4.3,2.4,6.9,3.2c2.7,0.7,5.6,1.1,8.8,1.1c4.7,0,8.4-1,11.1-2.9c2.7-2,4.1-4.7,4.1-8.1c0-2.8-0.8-5.1-2.5-6.8
	c-1.6-1.6-4.3-2.9-7.8-3.7l-5.8-1.3c-1.3-0.4-2.3-0.7-2.8-1.1c-0.5-0.4-0.7-0.8-0.7-1.5c0-0.9,0.4-1.6,1.2-2.1
	c0.9-0.5,2.1-0.8,3.7-0.8c3.5,0,7,1.3,10.6,3.7l0.3,0.2l0.2-0.4l2.8-7l0.1-0.2l-0.2-0.2c-1.9-1.4-4-2.4-6.4-3.2
	C136.4-110.8,133.9-111.1,131.4-111.1z"/>
<path d="M201.4-74.8c-3.2,0-6.1-0.4-8.8-1.1c-2.6-0.7-5-1.8-6.9-3.1l-0.1-0.1l2.9-7.6l0.2,0.1c1.8,1.2,3.9,2.2,6.1,2.9
	c2.2,0.7,4.5,1,6.7,1c1.6,0,2.9-0.3,3.7-0.8c0.9-0.5,1.3-1.2,1.3-2.1c0-0.8-0.3-1.4-0.9-1.8c-0.6-0.5-1.8-0.9-3.5-1.2l-5.6-1.3
	c-3.3-0.8-5.8-1.9-7.4-3.5c-1.6-1.6-2.4-3.8-2.4-6.5c0-2.2,0.6-4.1,1.9-5.8c1.2-1.7,3-3,5.3-3.9c2.3-0.9,4.9-1.4,7.8-1.4
	c2.5,0,4.9,0.4,7.3,1.1c2.3,0.8,4.5,1.8,6.4,3.2l0.1,0.1l-2.9,7.3l-0.2-0.1c-3.6-2.5-7.2-3.8-10.7-3.8c-1.6,0-2.9,0.3-3.8,0.8
	s-1.3,1.3-1.3,2.2c0,0.7,0.3,1.2,0.8,1.6c0.5,0.4,1.5,0.8,2.9,1.2l5.8,1.3c3.5,0.8,6.1,2,7.8,3.7c1.6,1.6,2.5,3.9,2.5,6.7
	c0,3.4-1.4,6-4,8C209.8-75.8,206.1-74.8,201.4-74.8L201.4-74.8z"/>
<path class="st2" d="M201.9-110.8c2.5,0,4.9,0.4,7.2,1.1c2.3,0.7,4.4,1.8,6.3,3.2l-2.8,7c-3.6-2.5-7.2-3.8-10.8-3.8
	c-1.6,0-2.9,0.3-3.9,0.8c-0.9,0.6-1.4,1.4-1.4,2.4c0,0.7,0.3,1.3,0.8,1.8c0.6,0.4,1.5,0.8,2.9,1.2l5.8,1.3c3.5,0.8,6.1,2,7.7,3.6
	c1.6,1.6,2.4,3.8,2.4,6.6c0,3.3-1.3,5.9-4,7.8c-2.6,1.9-6.3,2.8-10.9,2.8c-3.2,0-6.1-0.4-8.7-1.1s-4.9-1.8-6.8-3.1l2.8-7.3
	c1.9,1.3,3.9,2.2,6.2,2.9c2.2,0.7,4.5,1.1,6.8,1.1c1.6,0,2.9-0.3,3.8-0.8s1.4-1.3,1.4-2.2c0-0.8-0.3-1.5-0.9-2s-1.8-0.9-3.5-1.3
	l-5.6-1.3c-3.3-0.7-5.8-1.9-7.3-3.5c-1.6-1.6-2.3-3.7-2.3-6.4c0-2.1,0.6-4,1.9-5.7c1.2-1.6,3-2.9,5.3-3.9
	C196.4-110.3,199-110.8,201.9-110.8 M201.9-111.1c-2.9,0-5.6,0.5-7.9,1.4c-2.3,1-4.1,2.3-5.4,4s-1.9,3.7-1.9,5.9
	c0,2.8,0.8,5,2.4,6.6s4.1,2.8,7.5,3.6l5.6,1.3c1.7,0.4,2.8,0.8,3.4,1.2c0.5,0.4,0.8,1,0.8,1.7c0,0.8-0.4,1.4-1.2,1.9
	c-0.9,0.5-2.1,0.8-3.7,0.8c-2.2,0-4.5-0.3-6.7-1s-4.2-1.7-6.1-2.9l-0.3-0.2l-0.1,0.4l-2.8,7.3l-0.1,0.2l0.2,0.1
	c1.9,1.4,4.3,2.4,6.9,3.2c2.7,0.7,5.6,1.1,8.8,1.1c4.7,0,8.4-1,11.1-2.9s4.1-4.7,4.1-8.1c0-2.8-0.8-5.1-2.5-6.8
	c-1.6-1.6-4.3-2.9-7.8-3.7l-5.8-1.3c-1.3-0.4-2.3-0.7-2.8-1.1s-0.7-0.8-0.7-1.5c0-0.9,0.4-1.6,1.2-2.1c0.9-0.5,2.1-0.8,3.7-0.8
	c3.5,0,7,1.3,10.6,3.7l0.3,0.2l0.2-0.4l2.8-7l0.1-0.2l-0.2-0.2c-1.9-1.4-4-2.4-6.4-3.2C206.9-110.8,204.4-111.1,201.9-111.1
	L201.9-111.1z"/>
<path class="st1" d="M175-109.9l-8.3,20.2l-8.3-20.2h-10.2l13.4,32.6l-5.9,14.4h10.2l19.3-47H175z"/>
<path class="st0" d="M280.8-92.9h-4.7L269-75.6h4.7L280.8-92.9z"/>
<g>
	<path class="st3" d="M310.1-90.7l-4.2,15.1h-2.7l-2.9-10.6c-0.1-0.5-0.2-1-0.2-1.6c-0.1,0.6-0.1,1.1-0.3,1.6l-2.9,10.6h-2.7
		l-4.3-15.1h2.6l2.8,11.1c0.1,0.5,0.2,1,0.2,1.6h0.1c0-0.4,0.1-1,0.3-1.6l3.1-11h2.4l2.9,11.2c0.1,0.4,0.2,0.9,0.3,1.5
		c0-0.5,0.1-1,0.3-1.5l2.7-11.1h2.5L310.1-90.7z"/>
	<path class="st3" d="M320.6-75.6h-8.4v-15.1h8v2h-5.7v4.5h5.3v2h-5.3v4.6h6v2H320.6z"/>
	<path class="st3" d="M323.3-75.6v-15.1h4.7c1.4,0,2.5,0.3,3.4,0.9c0.8,0.6,1.2,1.5,1.2,2.5c0,0.8-0.3,1.6-0.8,2.2
		c-0.5,0.6-1.2,1.1-2,1.3c1,0.1,1.9,0.5,2.5,1.2c0.6,0.7,0.9,1.5,0.9,2.5c0,1.3-0.5,2.4-1.4,3.2s-2.2,1.2-3.7,1.2L323.3-75.6
		L323.3-75.6z M325.7-88.8v4.4h1.7c0.9,0,1.6-0.2,2.1-0.6c0.5-0.4,0.7-1,0.7-1.8c0-1.3-0.9-2-2.8-2L325.7-88.8z M325.7-82.4v4.9h2.2
		c1,0,1.7-0.2,2.2-0.7c0.5-0.4,0.8-1.1,0.8-1.8c0-1.6-1.1-2.4-3.3-2.4H325.7z"/>
	<path class="st3" d="M340-88.8h-1.4v11.3h1.4v1.9h-5.1v-1.9h1.4v-11.3h-1.4v-1.9h5.1V-88.8z"/>
	<path class="st3" d="M355-75.6h-2.6l-7.2-11.2c-0.3-0.4-0.5-0.8-0.6-1.1h-0.1c0.1,0.4,0.1,1.1,0.1,2.2v10h-2.3v-15h2.8l7,10.9
		c0.3,0.5,0.6,0.9,0.7,1.1c-0.1-0.5-0.1-1.2-0.1-2.2v-9.9h2.3L355-75.6z"/>
	<path class="st3" d="M371.1-75.6h-2.6l-1.4-3.9H361l-1.3,3.9h-2.6l5.7-15.1h2.6L371.1-75.6z M366.4-81.5l-2.1-6
		c-0.1-0.2-0.2-0.6-0.2-1.1H364c-0.1,0.4-0.1,0.8-0.2,1.1l-2.1,6H366.4z"/>
	<path class="st3" d="M384.7-75.6H382l-2.5-4.1c-0.5-0.8-0.9-1.4-1.3-1.7c-0.4-0.3-0.8-0.4-1.4-0.4h-1.3v6.2h-2.3v-15.1h4.8
		c1.6,0,2.8,0.4,3.6,1.1c0.9,0.7,1.3,1.7,1.3,3c0,1-0.3,1.9-0.9,2.6s-1.4,1.2-2.5,1.5c0.7,0.2,1.4,1,2.3,2.4L384.7-75.6z
		 M375.5-88.8v5h2.1c0.9,0,1.6-0.3,2.1-0.8s0.8-1.1,0.8-1.9c0-1.6-0.9-2.4-2.8-2.4L375.5-88.8L375.5-88.8z"/>
	<path class="st3" d="M385.8-78.7c1.2,0.9,2.5,1.4,4.1,1.4c2,0,3-0.7,3-2.1c0-0.4-0.1-0.8-0.3-1.1c-0.2-0.3-0.5-0.6-0.9-0.8
		s-1.1-0.6-2.2-1.1c-1.4-0.7-2.3-1.3-2.9-2c-0.5-0.7-0.8-1.5-0.8-2.4c0-1.3,0.5-2.3,1.5-3.1c1-0.7,2.3-1.1,3.9-1.1
		c1.5,0,2.7,0.2,3.4,0.6v2.4c-0.9-0.6-2.1-1-3.5-1c-0.9,0-1.6,0.2-2.2,0.5c-0.5,0.4-0.8,0.8-0.8,1.5c0,0.6,0.2,1,0.6,1.4
		s1.2,0.9,2.5,1.5c1.5,0.7,2.5,1.4,3.1,2.1s0.9,1.5,0.9,2.4c0,1.4-0.5,2.4-1.5,3.1s-2.4,1.1-4.1,1.1c-0.6,0-1.4-0.1-2.1-0.2
		c-0.8-0.2-1.4-0.4-1.8-0.6L385.8-78.7L385.8-78.7z"/>
	<path class="st3" d="M405.2-76.5h-1.9v-13h1.9V-76.5z"/>
	<path class="st3" d="M432.6-90.7l-4.2,15.1h-2.7l-2.9-10.6c-0.1-0.5-0.2-1-0.2-1.6c-0.1,0.6-0.1,1.1-0.3,1.6l-2.9,10.6h-2.7
		l-4.3-15.1h2.6l2.8,11.1c0.1,0.5,0.2,1,0.2,1.6h0.1c0-0.4,0.1-1,0.3-1.6l3.1-11h2.4l2.9,11.2c0.1,0.4,0.2,0.9,0.3,1.5
		c0-0.5,0.1-1,0.3-1.5l2.7-11.1h2.5L432.6-90.7z"/>
	<path class="st3" d="M433.8-83c0-2.4,0.7-4.3,2-5.8s3.1-2.2,5.4-2.2c2.1,0,3.8,0.7,5.1,2.1s1.9,3.3,1.9,5.5c0,2.4-0.7,4.3-2,5.8
		s-3.1,2.2-5.3,2.2c-2.1,0-3.9-0.7-5.2-2.1S433.8-80.7,433.8-83z M436.2-83.1c0,1.7,0.4,3,1.3,4.1s2,1.6,3.5,1.6s2.7-0.5,3.6-1.5
		c0.8-1,1.3-2.4,1.3-4.2c0-1.8-0.4-3.2-1.2-4.2s-2-1.6-3.5-1.6s-2.6,0.5-3.5,1.6C436.7-86.2,436.2-84.8,436.2-83.1L436.2-83.1z"/>
	<path class="st3" d="M462.6-75.6h-2.7l-2.5-4.1c-0.5-0.8-0.9-1.4-1.3-1.7c-0.4-0.3-0.8-0.4-1.4-0.4h-1.3v6.2h-2.3v-15.1h4.8
		c1.6,0,2.8,0.4,3.6,1.1c0.9,0.7,1.3,1.7,1.3,3c0,1-0.3,1.9-0.9,2.6s-1.4,1.2-2.5,1.5c0.7,0.2,1.4,1,2.3,2.4L462.6-75.6z
		 M453.4-88.8v5h2.1c0.9,0,1.6-0.3,2.1-0.8s0.8-1.1,0.8-1.9c0-1.6-0.9-2.4-2.8-2.4L453.4-88.8L453.4-88.8z"/>
	<path class="st3" d="M475.6-75.6h-3.1l-5.3-6.8c-0.2-0.2-0.3-0.5-0.4-0.6v7.4h-2.3v-15.1h2.3v7.1c0.1-0.2,0.2-0.4,0.4-0.6l5.1-6.5
		h2.9l-6.1,7.2L475.6-75.6z"/>
	<path class="st3" d="M476.7-78.7c1.2,0.9,2.5,1.4,4.1,1.4c2,0,3-0.7,3-2.1c0-0.4-0.1-0.8-0.3-1.1c-0.2-0.3-0.5-0.6-0.9-0.8
		s-1.1-0.6-2.2-1.1c-1.4-0.7-2.3-1.3-2.9-2c-0.5-0.7-0.8-1.5-0.8-2.4c0-1.3,0.5-2.3,1.5-3.1c1-0.7,2.3-1.1,3.9-1.1
		c1.5,0,2.7,0.2,3.4,0.6v2.4c-0.9-0.6-2.1-1-3.5-1c-0.9,0-1.6,0.2-2.2,0.5c-0.5,0.4-0.8,0.8-0.8,1.5c0,0.6,0.2,1,0.6,1.4
		s1.2,0.9,2.5,1.5c1.5,0.7,2.5,1.4,3.1,2.1s0.9,1.5,0.9,2.4c0,1.4-0.5,2.4-1.5,3.1s-2.4,1.1-4.1,1.1c-0.6,0-1.4-0.1-2.1-0.2
		c-0.8-0.2-1.4-0.4-1.8-0.6L476.7-78.7L476.7-78.7z"/>
	<path class="st3" d="M501.1-75.6h-2.3v-6.6h-7.3v6.6h-2.3v-15.1h2.3v6.4h7.3v-6.4h2.3V-75.6z"/>
	<path class="st3" d="M503.9-83c0-2.4,0.7-4.3,2-5.8s3.1-2.2,5.4-2.2c2.1,0,3.8,0.7,5.1,2.1c1.3,1.4,1.9,3.3,1.9,5.5
		c0,2.4-0.7,4.3-2,5.8s-3.1,2.2-5.3,2.2c-2.1,0-3.9-0.7-5.2-2.1C504.6-78.9,503.9-80.7,503.9-83z M506.4-83.1c0,1.7,0.4,3,1.3,4.1
		s2,1.6,3.5,1.6c1.5,0,2.7-0.5,3.6-1.5c0.8-1,1.3-2.4,1.3-4.2c0-1.8-0.4-3.2-1.2-4.2s-2-1.6-3.5-1.6s-2.6,0.5-3.5,1.6
		C506.8-86.2,506.4-84.8,506.4-83.1L506.4-83.1z"/>
	<path class="st3" d="M523.6-81.1v5.5h-2.3v-15.1h4.6c1.7,0,3,0.4,3.9,1.2c0.9,0.8,1.4,1.9,1.4,3.4s-0.5,2.7-1.6,3.7
		c-1.1,0.9-2.4,1.4-4,1.3L523.6-81.1z M523.6-88.8v5.7h1.7c2.3,0,3.4-1,3.4-2.9c0-1.8-1.1-2.8-3.3-2.8H523.6z"/>
	<path class="st3" d="M533-78.7c1.2,0.9,2.5,1.4,4.1,1.4c2,0,3-0.7,3-2.1c0-0.4-0.1-0.8-0.3-1.1c-0.2-0.3-0.5-0.6-0.9-0.8
		s-1.1-0.6-2.2-1.1c-1.4-0.7-2.3-1.3-2.9-2c-0.5-0.7-0.8-1.5-0.8-2.4c0-1.3,0.5-2.3,1.5-3.1c1-0.7,2.3-1.1,3.9-1.1
		c1.5,0,2.7,0.2,3.4,0.6v2.4c-0.9-0.6-2.1-1-3.5-1c-0.9,0-1.6,0.2-2.2,0.5c-0.5,0.4-0.8,0.8-0.8,1.5c0,0.6,0.2,1,0.6,1.4
		s1.2,0.9,2.5,1.5c1.5,0.7,2.5,1.4,3.1,2.1s0.9,1.5,0.9,2.4c0,1.4-0.5,2.4-1.5,3.1s-2.4,1.1-4.1,1.1c-0.6,0-1.4-0.1-2.1-0.2
		c-0.8-0.2-1.4-0.4-1.8-0.6L533-78.7L533-78.7z"/>
	<path class="st3" d="M553.4-76.5h-1.9v-13h1.9V-76.5z"/>
	<path class="st3" d="M570.5-75.6h-8.4v-15.1h8v2h-5.7v4.5h5.3v2h-5.3v4.6h6v2H570.5z"/>
	<path class="st3" d="M585-90.7l-5.5,15.1h-2.6l-5.4-15.1h2.6l3.8,11.5c0.1,0.4,0.2,0.9,0.3,1.4c0-0.4,0.2-0.9,0.3-1.4l3.9-11.5H585
		z"/>
	<path class="st3" d="M595.4-75.6H587v-15.1h8v2h-5.7v4.5h5.3v2h-5.3v4.6h6v2H595.4z"/>
	<path class="st3" d="M610.9-75.6h-2.6L601-86.7c-0.3-0.4-0.5-0.8-0.6-1.1h-0.1c0.1,0.4,0.1,1.1,0.1,2.2v10h-2.3v-15.1h2.8l7,10.9
		c0.3,0.5,0.6,0.9,0.7,1.1c-0.1-0.5-0.1-1.2-0.1-2.2v-9.9h2.3L610.9-75.6L610.9-75.6z"/>
	<path class="st3" d="M624.2-88.7h-4.3v13.1h-2.4v-13.1h-4.3v-2h11V-88.7z"/>
	<path class="st3" d="M625.8-78.7c1.2,0.9,2.5,1.4,4.1,1.4c2,0,3-0.7,3-2.1c0-0.4-0.1-0.8-0.3-1.1c-0.2-0.3-0.5-0.6-0.9-0.8
		s-1.1-0.6-2.2-1.1c-1.4-0.7-2.3-1.3-2.9-2c-0.5-0.7-0.8-1.5-0.8-2.4c0-1.3,0.5-2.3,1.5-3.1c1-0.7,2.3-1.1,3.9-1.1
		c1.5,0,2.7,0.2,3.4,0.6v2.4c-0.9-0.6-2.1-1-3.5-1c-0.9,0-1.6,0.2-2.2,0.5c-0.5,0.4-0.8,0.8-0.8,1.5c0,0.6,0.2,1,0.6,1.4
		s1.2,0.9,2.5,1.5c1.5,0.7,2.5,1.4,3.1,2.1s0.9,1.5,0.9,2.4c0,1.4-0.5,2.4-1.5,3.1s-2.4,1.1-4.1,1.1c-0.6,0-1.4-0.1-2.1-0.2
		c-0.8-0.2-1.4-0.4-1.8-0.6L625.8-78.7L625.8-78.7z"/>
</g>
<path class="st0" d="M71.2-284.2H57.7l-20.3,49.5H51L71.2-284.2z"/>
<path class="st1" d="M74.3-282.6L67.5-266l12.8,31.3h14.4L74.3-282.6z"/>
<path d="M120.7-234.5v-20.4c0-2.3-0.4-4-1.3-5c-0.8-1-2.1-1.6-3.9-1.6c-2.1,0-3.9,0.7-5.2,2.1s-2,3.2-2,5.5v19.4H97.5v-34.7h10.6
	v4.5c1.2-1.7,2.7-3,4.5-3.9c2-1,4.2-1.5,6.6-1.5c4.1,0,7.3,1.2,9.3,3.7c2,2.4,3.1,6.1,3.1,11v20.9H120.7z"/>
<path class="st2" d="M119.2-269.9c4.1,0,7.2,1.2,9.2,3.6c2,2.4,3,6,3,10.9v20.7h-10.5v-20.2c0-2.3-0.4-4-1.3-5.1s-2.2-1.6-4-1.6
	c-2.2,0-4,0.7-5.3,2.1s-2,3.3-2,5.6v19.3H97.7v-34.5H108v4.9c1.2-1.9,2.8-3.3,4.7-4.3C114.6-269.4,116.8-269.9,119.2-269.9
	 M119.2-270.2c-2.5,0-4.7,0.5-6.7,1.5c-1.7,0.8-3.1,2-4.3,3.5v-3.9v-0.3h-0.3H97.7h-0.3v0.3v34.4v0.3h0.3h10.6h0.3v-0.3v-19.2
	c0-2.2,0.6-4,1.9-5.4c1.3-1.3,3-2,5.1-2c1.7,0,3,0.5,3.8,1.5s1.2,2.7,1.2,4.9v20.3v0.3h0.3h10.6h0.3v-0.3v-20.8
	c0-4.9-1-8.7-3.1-11.1C126.6-269,123.4-270.2,119.2-270.2z"/>
<path d="M152-233.9c-3.2,0-6.1-0.4-8.8-1.1c-2.6-0.7-5-1.8-6.9-3.1l-0.1-0.1l2.9-7.6l0.2,0.1c1.8,1.2,3.9,2.2,6.1,2.9s4.5,1,6.8,1
	c1.6,0,2.9-0.3,3.7-0.8c0.9-0.5,1.3-1.2,1.3-2.1c0-0.8-0.3-1.4-0.9-1.8c-0.6-0.5-1.8-0.9-3.5-1.2l-5.6-1.3c-3.3-0.8-5.8-1.9-7.4-3.5
	c-1.6-1.6-2.4-3.8-2.4-6.5c0-2.2,0.6-4.1,1.9-5.8c1.2-1.7,3-3,5.3-3.9s4.9-1.4,7.8-1.4c2.5,0,4.9,0.4,7.3,1.1
	c2.3,0.8,4.5,1.8,6.4,3.2l0.1,0.1l-2.9,7.3l-0.2-0.1c-3.6-2.5-7.2-3.8-10.7-3.8c-1.6,0-2.9,0.3-3.8,0.8c-0.9,0.5-1.3,1.3-1.3,2.2
	c0,0.7,0.3,1.2,0.8,1.6s1.5,0.8,2.9,1.2l5.8,1.3c3.5,0.8,6.1,2,7.8,3.7c1.6,1.6,2.5,3.9,2.5,6.7c0,3.4-1.4,6-4,8
	C160.4-234.9,156.7-233.9,152-233.9L152-233.9z"/>
<path class="st2" d="M152.5-269.9c2.5,0,4.9,0.4,7.2,1.1c2.3,0.7,4.4,1.8,6.3,3.2l-2.8,7c-3.6-2.5-7.2-3.8-10.8-3.8
	c-1.6,0-2.9,0.3-3.9,0.8c-0.9,0.6-1.4,1.4-1.4,2.4c0,0.7,0.3,1.3,0.8,1.8c0.6,0.4,1.5,0.8,2.9,1.2l5.8,1.3c3.5,0.8,6.1,2,7.7,3.6
	c1.6,1.6,2.4,3.8,2.4,6.6c0,3.3-1.3,5.9-4,7.8c-2.6,1.9-6.3,2.8-10.9,2.8c-3.2,0-6.1-0.4-8.7-1.1c-2.6-0.7-4.9-1.8-6.8-3.1l2.8-7.3
	c1.9,1.3,3.9,2.2,6.2,2.9c2.2,0.7,4.5,1.1,6.8,1.1c1.6,0,2.9-0.3,3.8-0.8c0.9-0.5,1.4-1.3,1.4-2.2c0-0.8-0.3-1.5-0.9-2
	c-0.6-0.5-1.8-0.9-3.5-1.3l-5.6-1.3c-3.3-0.7-5.8-1.9-7.3-3.5c-1.6-1.6-2.3-3.7-2.3-6.4c0-2.1,0.6-4,1.9-5.7c1.2-1.6,3-2.9,5.3-3.9
	C147-269.4,149.6-269.9,152.5-269.9 M152.5-270.2c-2.9,0-5.6,0.5-7.9,1.4c-2.3,1-4.1,2.3-5.4,4s-1.9,3.7-1.9,5.9
	c0,2.8,0.8,5,2.4,6.6c1.6,1.6,4.1,2.8,7.5,3.6l5.6,1.3c1.7,0.4,2.8,0.8,3.4,1.2c0.5,0.4,0.8,1,0.8,1.7c0,0.8-0.4,1.4-1.2,1.9
	c-0.9,0.5-2.1,0.8-3.7,0.8c-2.2,0-4.5-0.3-6.7-1s-4.2-1.7-6.1-2.9l-0.2-0.4l-0.1,0.4l-2.8,7.3l-0.1,0.2l0.2,0.1
	c1.9,1.4,4.3,2.4,6.9,3.2c2.7,0.7,5.6,1.1,8.8,1.1c4.7,0,8.4-1,11.1-2.9c2.7-2,4.1-4.7,4.1-8.1c0-2.8-0.8-5.1-2.5-6.8
	c-1.6-1.6-4.3-2.9-7.8-3.7l-5.8-1.3c-1.3-0.4-2.3-0.7-2.8-1.1c-0.5-0.4-0.7-0.8-0.7-1.5c0-0.9,0.4-1.6,1.2-2.1
	c0.9-0.5,2.1-0.8,3.7-0.8c3.5,0,7,1.3,10.6,3.7l0.3,0.2l0.2-0.4l2.8-7l0.1-0.2l-0.2-0.2c-1.9-1.4-4-2.4-6.4-3.2
	C157.5-269.9,155-270.2,152.5-270.2z"/>
<path d="M222.5-233.9c-3.2,0-6.1-0.4-8.8-1.1c-2.6-0.7-5-1.8-6.9-3.1l-0.1-0.1l2.9-7.6l0.2,0.1c1.8,1.2,3.9,2.2,6.1,2.9s4.5,1,6.7,1
	c1.6,0,2.9-0.3,3.7-0.8c0.9-0.5,1.3-1.2,1.3-2.1c0-0.8-0.3-1.4-0.9-1.8c-0.6-0.5-1.8-0.9-3.5-1.2l-5.6-1.3c-3.3-0.8-5.8-1.9-7.4-3.5
	c-1.6-1.6-2.4-3.8-2.4-6.5c0-2.2,0.6-4.1,1.9-5.8c1.2-1.7,3-3,5.3-3.9s4.9-1.4,7.8-1.4c2.5,0,4.9,0.4,7.3,1.1
	c2.3,0.8,4.5,1.8,6.4,3.2l0.1,0.1l-2.9,7.3l-0.2-0.1c-3.6-2.5-7.2-3.8-10.7-3.8c-1.6,0-2.9,0.3-3.8,0.8s-1.3,1.3-1.3,2.2
	c0,0.7,0.3,1.2,0.8,1.6s1.5,0.8,2.9,1.2l5.8,1.3c3.5,0.8,6.1,2,7.8,3.7c1.6,1.6,2.5,3.9,2.5,6.7c0,3.4-1.4,6-4,8
	C230.9-234.9,227.2-233.9,222.5-233.9L222.5-233.9z"/>
<path class="st2" d="M223-269.9c2.5,0,4.9,0.4,7.2,1.1s4.4,1.8,6.3,3.2l-2.8,7c-3.6-2.5-7.2-3.8-10.8-3.8c-1.6,0-2.9,0.3-3.9,0.8
	c-0.9,0.6-1.4,1.4-1.4,2.4c0,0.7,0.3,1.3,0.8,1.8c0.6,0.4,1.5,0.8,2.9,1.2l5.8,1.3c3.5,0.8,6.1,2,7.7,3.6c1.6,1.6,2.4,3.8,2.4,6.6
	c0,3.3-1.3,5.9-4,7.8c-2.6,1.9-6.3,2.8-10.9,2.8c-3.2,0-6.1-0.4-8.7-1.1s-4.9-1.8-6.8-3.1l2.8-7.3c1.9,1.3,3.9,2.2,6.2,2.9
	c2.2,0.7,4.5,1.1,6.8,1.1c1.6,0,2.9-0.3,3.8-0.8s1.4-1.3,1.4-2.2c0-0.8-0.3-1.5-0.9-2s-1.8-0.9-3.5-1.3l-5.6-1.3
	c-3.3-0.7-5.8-1.9-7.3-3.5c-1.6-1.6-2.3-3.7-2.3-6.4c0-2.1,0.6-4,1.9-5.7c1.2-1.6,3-2.9,5.3-3.9C217.5-269.4,220.1-269.9,223-269.9
	 M223-270.2c-2.9,0-5.6,0.5-7.9,1.4c-2.3,1-4.1,2.3-5.4,4s-1.9,3.7-1.9,5.9c0,2.8,0.8,5,2.4,6.6c1.6,1.6,4.1,2.8,7.5,3.6l5.6,1.3
	c1.7,0.4,2.8,0.8,3.4,1.2c0.5,0.4,0.8,1,0.8,1.7c0,0.8-0.4,1.4-1.2,1.9c-0.9,0.5-2.1,0.8-3.7,0.8c-2.2,0-4.5-0.3-6.7-1
	s-4.2-1.7-6.1-2.9l-0.3-0.2l-0.1,0.4l-2.8,7.3l-0.1,0.2l0.2,0.1c1.9,1.4,4.3,2.4,6.9,3.2c2.7,0.7,5.6,1.1,8.8,1.1
	c4.7,0,8.4-1,11.1-2.9c2.7-1.9,4.1-4.7,4.1-8.1c0-2.8-0.8-5.1-2.5-6.8c-1.6-1.6-4.3-2.9-7.8-3.7l-5.8-1.3c-1.3-0.4-2.3-0.7-2.8-1.1
	s-0.7-0.8-0.7-1.5c0-0.9,0.4-1.6,1.2-2.1c0.9-0.5,2.1-0.8,3.7-0.8c3.5,0,7,1.3,10.6,3.7l0.3,0.2l0.2-0.4l2.8-7l0.1-0.2l-0.2-0.2
	c-1.9-1.4-4-2.4-6.4-3.2C228-269.9,225.5-270.2,223-270.2L223-270.2z"/>
<path class="st1" d="M196.1-269l-8.3,20.2l-8.3-20.2h-10.2l13.4,32.6l-5.9,14.4H187l19.3-47H196.1z"/>
<path class="st0" d="M27.7,18.7H23L15.9,36h4.7L27.7,18.7z"/>
<g>
	<path class="st3" d="M57,20.9L52.8,36h-2.7l-2.9-10.6c-0.1-0.5-0.2-1-0.2-1.6c-0.1,0.6-0.1,1.1-0.3,1.6L43.8,36h-2.7l-4.3-15.1h2.6
		L42.2,32c0.1,0.5,0.2,1,0.2,1.6h0.1c0-0.4,0.1-1,0.3-1.6l3.1-11h2.4l2.9,11.2c0.1,0.4,0.2,0.9,0.3,1.5c0-0.5,0.1-1,0.3-1.5
		l2.7-11.1H57L57,20.9z"/>
	<path class="st3" d="M67.5,36h-8.4V20.9h8v2h-5.7v4.5h5.3v2h-5.3V34h6v2H67.5z"/>
	<path class="st3" d="M70.2,36V20.9h4.7c1.4,0,2.5,0.3,3.4,0.9c0.8,0.6,1.2,1.5,1.2,2.5c0,0.8-0.3,1.6-0.8,2.2s-1.2,1.1-2,1.3
		c1,0.1,1.9,0.5,2.5,1.2s0.9,1.5,0.9,2.5c0,1.3-0.5,2.4-1.4,3.2s-2.2,1.2-3.7,1.2L70.2,36L70.2,36z M72.6,22.8v4.4h1.7
		c0.9,0,1.6-0.2,2.1-0.6s0.7-1,0.7-1.8c0-1.3-0.9-2-2.8-2L72.6,22.8z M72.6,29.2v4.9h2.2c1,0,1.7-0.2,2.2-0.7
		c0.5-0.4,0.8-1.1,0.8-1.8c0-1.6-1.1-2.4-3.3-2.4H72.6z"/>
	<path class="st3" d="M86.9,22.8h-1.4v11.3h1.4V36h-5.1v-1.9h1.4V22.8h-1.4v-1.9h5.1V22.8z"/>
	<path class="st3" d="M101.9,36h-2.6l-7.2-11.2c-0.3-0.4-0.5-0.8-0.6-1.1h-0.1c0.1,0.4,0.1,1.1,0.1,2.2v10h-2.3v-15H92l7,10.9
		c0.3,0.5,0.6,0.9,0.7,1.1c-0.1-0.5-0.1-1.2-0.1-2.2v-9.9h2.3L101.9,36z"/>
	<path class="st3" d="M118,36h-2.6l-1.4-3.9h-6.1l-1.3,3.9H104l5.7-15.1h2.6L118,36z M113.3,30.1l-2.1-6c-0.1-0.2-0.2-0.6-0.2-1.1
		h-0.1c-0.1,0.4-0.1,0.8-0.2,1.1l-2.1,6H113.3z"/>
	<path class="st3" d="M131.6,36h-2.7l-2.5-4.1c-0.5-0.8-0.9-1.4-1.3-1.7s-0.8-0.4-1.4-0.4h-1.3V36h-2.3V20.9h4.8
		c1.6,0,2.8,0.4,3.6,1.1c0.9,0.7,1.3,1.7,1.3,3c0,1-0.3,1.9-0.9,2.6s-1.4,1.2-2.5,1.5c0.7,0.2,1.4,1,2.3,2.4L131.6,36z M122.4,22.8
		v5h2.1c0.9,0,1.6-0.3,2.1-0.8s0.8-1.1,0.8-1.9c0-1.6-0.9-2.4-2.8-2.4h-2.2V22.8z"/>
	<path class="st3" d="M132.7,32.9c1.2,0.9,2.5,1.4,4.1,1.4c2,0,3-0.7,3-2.1c0-0.4-0.1-0.8-0.3-1.1s-0.5-0.6-0.9-0.8
		s-1.1-0.6-2.2-1.1c-1.4-0.7-2.3-1.3-2.9-2c-0.5-0.7-0.8-1.5-0.8-2.4c0-1.3,0.5-2.3,1.5-3.1c1-0.7,2.3-1.1,3.9-1.1
		c1.5,0,2.7,0.2,3.4,0.6v2.4c-0.9-0.6-2.1-1-3.5-1c-0.9,0-1.6,0.2-2.2,0.5c-0.5,0.4-0.8,0.8-0.8,1.5c0,0.6,0.2,1,0.6,1.4
		s1.2,0.9,2.5,1.5c1.5,0.7,2.5,1.4,3.1,2.1s0.9,1.5,0.9,2.4c0,1.4-0.5,2.4-1.5,3.1s-2.4,1.1-4.1,1.1c-0.6,0-1.4-0.1-2.1-0.2
		c-0.8-0.2-1.4-0.4-1.8-0.6L132.7,32.9L132.7,32.9z"/>
	<path class="st3" d="M152.1,35.1h-1.9v-13h1.9V35.1z"/>
	<path class="st3" d="M179.5,20.9L175.3,36h-2.7l-2.9-10.6c-0.1-0.5-0.2-1-0.2-1.6c-0.1,0.6-0.1,1.1-0.3,1.6L166.3,36h-2.7
		l-4.3-15.1h2.6l2.8,11.1c0.1,0.5,0.2,1,0.2,1.6h0.1c0-0.4,0.1-1,0.3-1.6l3.1-11h2.4l2.9,11.2c0.1,0.4,0.2,0.9,0.3,1.5
		c0-0.5,0.1-1,0.3-1.5l2.7-11.1h2.5L179.5,20.9z"/>
	<path class="st3" d="M180.7,28.6c0-2.4,0.7-4.3,2-5.8s3.1-2.2,5.4-2.2c2.1,0,3.8,0.7,5.1,2.1s1.9,3.3,1.9,5.5c0,2.4-0.7,4.3-2,5.8
		s-3.1,2.2-5.3,2.2c-2.1,0-3.9-0.7-5.2-2.1S180.7,30.9,180.7,28.6z M183.1,28.5c0,1.7,0.4,3,1.3,4.1s2,1.6,3.5,1.6s2.7-0.5,3.6-1.5
		c0.8-1,1.3-2.4,1.3-4.2s-0.4-3.2-1.2-4.2s-2-1.6-3.5-1.6s-2.6,0.5-3.5,1.6C183.6,25.4,183.1,26.8,183.1,28.5L183.1,28.5z"/>
	<path class="st3" d="M209.5,36h-2.7l-2.5-4.1c-0.5-0.8-0.9-1.4-1.3-1.7s-0.8-0.4-1.4-0.4h-1.3V36H198V20.9h4.8
		c1.6,0,2.8,0.4,3.6,1.1c0.9,0.7,1.3,1.7,1.3,3c0,1-0.3,1.9-0.9,2.6s-1.4,1.2-2.5,1.5c0.7,0.2,1.4,1,2.3,2.4L209.5,36z M200.3,22.8
		v5h2.1c0.9,0,1.6-0.3,2.1-0.8s0.8-1.1,0.8-1.9c0-1.6-0.9-2.4-2.8-2.4h-2.2V22.8z"/>
	<path class="st3" d="M222.5,36h-3.1l-5.3-6.8c-0.2-0.2-0.3-0.5-0.4-0.6V36h-2.3V20.9h2.3V28c0.1-0.2,0.2-0.4,0.4-0.6l5.1-6.5h2.9
		l-6.1,7.2L222.5,36z"/>
	<path class="st3" d="M223.6,32.9c1.2,0.9,2.5,1.4,4.1,1.4c2,0,3-0.7,3-2.1c0-0.4-0.1-0.8-0.3-1.1s-0.5-0.6-0.9-0.8
		s-1.1-0.6-2.2-1.1c-1.4-0.7-2.3-1.3-2.9-2c-0.5-0.7-0.8-1.5-0.8-2.4c0-1.3,0.5-2.3,1.5-3.1c1-0.7,2.3-1.1,3.9-1.1
		c1.5,0,2.7,0.2,3.4,0.6v2.4c-0.9-0.6-2.1-1-3.5-1c-0.9,0-1.6,0.2-2.2,0.5c-0.5,0.4-0.8,0.8-0.8,1.5c0,0.6,0.2,1,0.6,1.4
		s1.2,0.9,2.5,1.5c1.5,0.7,2.5,1.4,3.1,2.1s0.9,1.5,0.9,2.4c0,1.4-0.5,2.4-1.5,3.1s-2.4,1.1-4.1,1.1c-0.6,0-1.4-0.1-2.1-0.2
		c-0.8-0.2-1.4-0.4-1.8-0.6L223.6,32.9L223.6,32.9z"/>
	<path class="st3" d="M248,36h-2.3v-6.6h-7.3V36h-2.3V20.9h2.3v6.4h7.3v-6.4h2.3V36z"/>
	<path class="st3" d="M250.8,28.6c0-2.4,0.7-4.3,2-5.8s3.1-2.2,5.4-2.2c2.1,0,3.8,0.7,5.1,2.1s1.9,3.3,1.9,5.5c0,2.4-0.7,4.3-2,5.8
		s-3.1,2.2-5.3,2.2c-2.1,0-3.9-0.7-5.2-2.1C251.5,32.7,250.8,30.9,250.8,28.6z M253.3,28.5c0,1.7,0.4,3,1.3,4.1s2,1.6,3.5,1.6
		s2.7-0.5,3.6-1.5c0.8-1,1.3-2.4,1.3-4.2s-0.4-3.2-1.2-4.2s-2-1.6-3.5-1.6s-2.6,0.5-3.5,1.6C253.7,25.4,253.3,26.8,253.3,28.5
		L253.3,28.5z"/>
	<path class="st3" d="M270.5,30.5V36h-2.3V20.9h4.6c1.7,0,3,0.4,3.9,1.2s1.4,1.9,1.4,3.4s-0.5,2.7-1.6,3.7c-1.1,0.9-2.4,1.4-4,1.3
		L270.5,30.5z M270.5,22.8v5.7h1.7c2.3,0,3.4-1,3.4-2.9c0-1.8-1.1-2.8-3.3-2.8H270.5z"/>
	<path class="st3" d="M279.9,32.9c1.2,0.9,2.5,1.4,4.1,1.4c2,0,3-0.7,3-2.1c0-0.4-0.1-0.8-0.3-1.1s-0.5-0.6-0.9-0.8
		s-1.1-0.6-2.2-1.1c-1.4-0.7-2.3-1.3-2.9-2c-0.5-0.7-0.8-1.5-0.8-2.4c0-1.3,0.5-2.3,1.5-3.1c1-0.7,2.3-1.1,3.9-1.1
		c1.5,0,2.7,0.2,3.4,0.6v2.4c-0.9-0.6-2.1-1-3.5-1c-0.9,0-1.6,0.2-2.2,0.5c-0.5,0.4-0.8,0.8-0.8,1.5c0,0.6,0.2,1,0.6,1.4
		s1.2,0.9,2.5,1.5c1.5,0.7,2.5,1.4,3.1,2.1s0.9,1.5,0.9,2.4c0,1.4-0.5,2.4-1.5,3.1s-2.4,1.1-4.1,1.1c-0.6,0-1.4-0.1-2.1-0.2
		c-0.8-0.2-1.4-0.4-1.8-0.6L279.9,32.9L279.9,32.9z"/>
	<path class="st3" d="M300.3,35.1h-1.9v-13h1.9V35.1z"/>
	<path class="st3" d="M317.4,36H309V20.9h8v2h-5.7v4.5h5.3v2h-5.3V34h6v2H317.4z"/>
	<path class="st3" d="M331.9,20.9L326.4,36h-2.6l-5.4-15.1h2.6l3.8,11.5c0.1,0.4,0.2,0.9,0.3,1.4c0-0.4,0.2-0.9,0.3-1.4l3.9-11.5
		L331.9,20.9z"/>
	<path class="st3" d="M342.3,36h-8.4V20.9h8v2h-5.7v4.5h5.3v2h-5.3V34h6v2H342.3z"/>
	<path class="st3" d="M357.8,36h-2.6l-7.3-11.1c-0.3-0.4-0.5-0.8-0.6-1.1h-0.1c0.1,0.4,0.1,1.1,0.1,2.2v10H345V20.9h2.8l7,10.9
		c0.3,0.5,0.6,0.9,0.7,1.1c-0.1-0.5-0.1-1.2-0.1-2.2v-9.9h2.3L357.8,36L357.8,36z"/>
	<path class="st3" d="M371.1,22.9h-4.3V36h-2.4V22.9h-4.3v-2h11V22.9z"/>
	<path class="st3" d="M372.7,32.9c1.2,0.9,2.5,1.4,4.1,1.4c2,0,3-0.7,3-2.1c0-0.4-0.1-0.8-0.3-1.1s-0.5-0.6-0.9-0.8
		s-1.1-0.6-2.2-1.1c-1.4-0.7-2.3-1.3-2.9-2c-0.5-0.7-0.8-1.5-0.8-2.4c0-1.3,0.5-2.3,1.5-3.1c1-0.7,2.3-1.1,3.9-1.1
		c1.5,0,2.7,0.2,3.4,0.6v2.4c-0.9-0.6-2.1-1-3.5-1c-0.9,0-1.6,0.2-2.2,0.5c-0.5,0.4-0.8,0.8-0.8,1.5c0,0.6,0.2,1,0.6,1.4
		s1.2,0.9,2.5,1.5c1.5,0.7,2.5,1.4,3.1,2.1s0.9,1.5,0.9,2.4c0,1.4-0.5,2.4-1.5,3.1s-2.4,1.1-4.1,1.1c-0.6,0-1.4-0.1-2.1-0.2
		c-0.8-0.2-1.4-0.4-1.8-0.6L372.7,32.9L372.7,32.9z"/>
</g>
</svg>
